<?xml version="1.0" encoding="UTF-8" standalone="no"?>
<svg
   id="Calque_1"
   data-name="Calque 1"
   viewBox="0 0 858.76 276.09"
   version="1.1"
   sodipodi:docname="les-canumeriques-logo.svg"
   inkscape:version="1.1.2 (0a00cf5339, 2022-02-04)"
   xmlns:inkscape="http://www.inkscape.org/namespaces/inkscape"
   xmlns:sodipodi="http://sodipodi.sourceforge.net/DTD/sodipodi-0.dtd"
   xmlns="http://www.w3.org/2000/svg"
   xmlns:svg="http://www.w3.org/2000/svg">
  <sodipodi:namedview
     id="namedview91"
     pagecolor="#ffffff"
     bordercolor="#666666"
     borderopacity="1.0"
     inkscape:pageshadow="2"
     inkscape:pageopacity="0.0"
     inkscape:pagecheckerboard="0"
     showgrid="false"
     inkscape:zoom="0.52780223"
     inkscape:cx="-6.6312717"
     inkscape:cy="266.19819"
     inkscape:window-width="1920"
     inkscape:window-height="1080"
     inkscape:window-x="0"
     inkscape:window-y="0"
     inkscape:window-maximized="0"
     inkscape:current-layer="Calque_1" />
  <defs
     id="defs4">
    <style
       id="style2">.cls-1{fill:none;stroke:#f0532d;stroke-linecap:round;stroke-miterlimit:10;stroke-width:3px;}.cls-2{fill:#fff;}</style>
  </defs>
  <line
     class="cls-1"
     x1="99.14"
     y1="220.6"
     x2="1.5"
     y2="96.76"
     id="line6"
     style="fill:#1a1a1a;stroke:#000000;stroke-opacity:1" />
  <line
     class="cls-1"
     x1="99.14"
     y1="55.48"
     x2="1.5"
     y2="179.32"
     id="line8"
     style="fill:#1a1a1a;stroke:#000000;stroke-opacity:1" />
  <line
     class="cls-1"
     x1="99.14"
     y1="55.48"
     x2="1.5"
     y2="96.76"
     id="line10"
     style="fill:#1a1a1a;stroke:#000000;stroke-opacity:1" />
  <line
     class="cls-1"
     x1="99.14"
     y1="220.6"
     x2="1.5"
     y2="179.32"
     id="line12"
     style="fill:#1a1a1a;stroke:#000000;stroke-opacity:1" />
  <line
     class="cls-1"
     x1="181.7"
     y1="44.37"
     x2="99.14"
     y2="1.5"
     id="line14"
     style="fill:#1a1a1a;stroke:#000000;stroke-opacity:1" />
  <line
     class="cls-1"
     x1="151.14"
     y1="197.19"
     x2="99.14"
     y2="274.59"
     id="line16"
     style="fill:#1a1a1a;stroke:#000000;stroke-opacity:1" />
  <line
     class="cls-1"
     x1="151.14"
     y1="78.9"
     x2="99.14"
     y2="1.5"
     id="line18"
     style="fill:#1a1a1a;stroke:#000000;stroke-opacity:1" />
  <line
     class="cls-1"
     x1="151.14"
     y1="197.19"
     x2="99.14"
     y2="220.6"
     id="line20"
     style="fill:#1a1a1a;stroke:#000000;stroke-opacity:1" />
  <line
     class="cls-1"
     x1="151.14"
     y1="78.9"
     x2="99.14"
     y2="55.48"
     id="line22"
     style="fill:#1a1a1a;stroke:#000000;stroke-opacity:1" />
  <line
     class="cls-1"
     x1="181.7"
     y1="44.37"
     x2="151.14"
     y2="78.9"
     id="line24"
     style="fill:#1a1a1a;stroke:#000000;stroke-opacity:1" />
  <line
     class="cls-1"
     x1="151.14"
     y1="197.19"
     x2="181.7"
     y2="231.72"
     id="line26"
     style="fill:#1a1a1a;stroke:#000000;stroke-opacity:1" />
  <line
     class="cls-1"
     x1="1.5"
     y1="96.76"
     x2="1.5"
     y2="179.32"
     id="line28"
     style="fill:#1a1a1a;stroke:#000000;stroke-opacity:1" />
  <line
     class="cls-1"
     x1="99.14"
     y1="1.5"
     x2="99.14"
     y2="55.48"
     id="line30"
     style="fill:#1a1a1a;stroke:#000000;stroke-opacity:1" />
  <line
     class="cls-1"
     x1="99.14"
     y1="220.6"
     x2="99.14"
     y2="274.59"
     id="line32"
     style="fill:#1a1a1a;stroke:#000000;stroke-opacity:1" />
  <line
     class="cls-1"
     x1="99.14"
     y1="1.5"
     x2="1.5"
     y2="96.76"
     id="line34"
     style="fill:#1a1a1a;stroke:#000000;stroke-opacity:1" />
  <line
     class="cls-1"
     x1="28.17"
     y1="251.17"
     x2="34.05"
     y2="138.04"
     id="line36"
     style="fill:#1a1a1a;stroke:#000000;stroke-opacity:1" />
  <line
     class="cls-1"
     x1="99.14"
     y1="1.5"
     x2="33.05"
     y2="20.77"
     id="line38"
     style="fill:#1a1a1a;stroke:#000000;stroke-opacity:1" />
  <line
     class="cls-1"
     x1="33.05"
     y1="20.77"
     x2="1.5"
     y2="96.76"
     id="line40"
     style="fill:#1a1a1a;stroke:#000000;stroke-opacity:1" />
  <line
     class="cls-1"
     x1="1.5"
     y1="179.32"
     x2="28.17"
     y2="251.17"
     id="line42"
     style="fill:#1a1a1a;stroke:#000000;stroke-opacity:1" />
  <line
     class="cls-1"
     x1="28.17"
     y1="251.17"
     x2="99.14"
     y2="274.59"
     id="line44"
     style="fill:#1a1a1a;stroke:#000000;stroke-opacity:1" />
  <line
     class="cls-1"
     x1="99.14"
     y1="1.5"
     x2="153.9"
     y2="15.91"
     id="line46"
     style="fill:#1a1a1a;stroke:#000000;stroke-opacity:1" />
  <line
     class="cls-1"
     x1="153.9"
     y1="15.91"
     x2="181.7"
     y2="44.37"
     id="line48"
     style="fill:#1a1a1a;stroke:#000000;stroke-opacity:1" />
  <line
     class="cls-1"
     x1="99.14"
     y1="274.59"
     x2="157.61"
     y2="262.88"
     id="line50"
     style="fill:#1a1a1a;stroke:#000000;stroke-opacity:1" />
  <line
     class="cls-1"
     x1="157.61"
     y1="262.88"
     x2="181.7"
     y2="231.72"
     id="line52"
     style="fill:#1a1a1a;stroke:#000000;stroke-opacity:1" />
  <line
     class="cls-1"
     x1="28.17"
     y1="251.17"
     x2="99.14"
     y2="220.6"
     id="line54"
     style="fill:#1a1a1a;stroke:#000000;stroke-opacity:1" />
  <line
     class="cls-1"
     x1="99.14"
     y1="55.48"
     x2="33.05"
     y2="20.77"
     id="line56"
     style="fill:#1a1a1a;stroke:#000000;stroke-opacity:1" />
  <line
     class="cls-1"
     x1="157.61"
     y1="262.88"
     x2="151.14"
     y2="197.19"
     id="line58"
     style="fill:#1a1a1a;stroke:#000000;stroke-opacity:1" />
  <path
     class="cls-2"
     d="M216.89,126.11a1.28,1.28,0,0,1-1.45,1.45h-3a1.28,1.28,0,0,1-1.45-1.45V61.21a1.28,1.28,0,0,1,1.45-1.45h3a1.28,1.28,0,0,1,1.45,1.45Z"
     id="path60"
     style="fill:#000000" />
  <path
     class="cls-2"
     d="M264,96.76v7.36a1.28,1.28,0,0,1-1.45,1.45H235v3.78c0,10,4.07,14.24,13.17,14.24,4.27,0,7.46-1.55,10.66-4.94a1.18,1.18,0,0,1,2,0l1.65,1.84a1.52,1.52,0,0,1,0,2.13,19.46,19.46,0,0,1-14.63,6.11c-12.3,0-18.79-6.2-18.79-18.51V96.76c0-11.82,6.1-18.11,17.44-18.11S264,84.94,264,96.76Zm-5.62.87c0-9.49-3.68-13.85-11.72-13.85S235,88.14,235,97.63v3h23.34Z"
     id="path62"
     style="fill:#000000" />
  <path
     class="cls-2"
     d="M289,128.73c-7.56,0-13-1.84-17.24-5.91a1.34,1.34,0,0,1-.1-2l1.55-1.93a1.31,1.31,0,0,1,2.13,0c3.2,3.19,7.56,4.74,13.08,4.74,6.88,0,10.75-3.19,10.75-8.91,0-5-2.81-7.36-11.91-8.72-11.14-1.64-15.11-5.42-15.11-13.36,0-8.53,6.58-13.95,16.75-13.95,5.52,0,10.46,1.55,13.85,4.36.78.67.88,1.26.29,2l-1.35,1.84a1.29,1.29,0,0,1-2,.29,16.52,16.52,0,0,0-10.26-3.39C282,83.78,278,87,278,92.69c0,4.55,2.62,6.78,11.34,8,11.62,1.55,15.69,5.61,15.69,14C305,123.3,298.83,128.73,289,128.73Z"
     id="path64"
     style="fill:#000000" />
  <path
     class="cls-2"
     d="M243.33,194.5c.78-1.26,1.84-1.65,3.1-.87l5,3a2.07,2.07,0,0,1,.77,3.1c-4.26,7.36-10.94,10.94-20.14,10.94-15,0-23.15-8.23-23.15-23.24V167.28c0-15,8.13-23.25,23.15-23.25,9.39,0,16.08,3.68,20.24,10.95a2.1,2.1,0,0,1-.87,3.1l-4.94,3.1a2,2,0,0,1-3.1-.78,12.73,12.73,0,0,0-11.33-6.29c-7.66,0-11.53,4.84-11.53,14.23v18c0,9.4,3.87,14.24,11.53,14.24A12.59,12.59,0,0,0,243.33,194.5Z"
     id="path66"
     style="fill:#000000" />
  <path
     class="cls-2"
     d="M307.74,207a1.75,1.75,0,0,1-1.84,2.52h-7.65a2.34,2.34,0,0,1-2.52-1.84l-3-10.07H269.87l-3,10.07a2.35,2.35,0,0,1-2.52,1.84h-7.27c-1.64,0-2.32-1-1.84-2.52l19.47-60a2.35,2.35,0,0,1,2.52-1.84h8.52a2.34,2.34,0,0,1,2.52,1.84ZM281.2,158.85l-8.42,28.87h17l-8.42-28.87Z"
     id="path68"
     style="fill:#000000" />
  <path
     class="cls-2"
     d="M359.27,145.19a2,2,0,0,1,2.23,2.23v59.86a2,2,0,0,1-2.23,2.23h-7.75a2.8,2.8,0,0,1-2.71-1.55l-21.89-43h-.2v42.33a2,2,0,0,1-2.22,2.23h-6.88a2,2,0,0,1-2.23-2.23V147.42a2,2,0,0,1,2.23-2.23h8.72a2.82,2.82,0,0,1,2.71,1.55L350,187.91h.2V147.42a2,2,0,0,1,2.22-2.23Z"
     id="path70"
     style="fill:#000000" />
  <path
     class="cls-2"
     d="M417.48,188.2c0,14.53-7.94,22.47-22.37,22.47s-22.38-7.94-22.38-22.47V147.42a2,2,0,0,1,2.23-2.23h7.17a2,2,0,0,1,2.22,2.23v39.91c0,9,3.49,13.27,10.85,13.27s10.95-4.26,10.95-13.27V147.42a2,2,0,0,1,2.23-2.23h6.87a2,2,0,0,1,2.23,2.23Z"
     id="path72"
     style="fill:#000000" />
  <path
     class="cls-2"
     d="M492.45,145.19a2,2,0,0,1,2.23,2.23v59.86a2,2,0,0,1-2.23,2.23h-7.17a2,2,0,0,1-2.23-2.23V161.66h-.19l-15.79,46a2.34,2.34,0,0,1-2.52,1.84h-5.91a2.33,2.33,0,0,1-2.51-1.84l-15.89-46.3h-.19v45.91a2,2,0,0,1-2.23,2.23h-6.88a2,2,0,0,1-2.23-2.23V147.42a2,2,0,0,1,2.23-2.23h13.18a2.34,2.34,0,0,1,2.51,1.84l15.11,44.56h.2L477,147a2.35,2.35,0,0,1,2.52-1.84Z"
     id="path74"
     style="fill:#000000" />
  <path
     class="cls-2"
     d="M541.55,171.93a2,2,0,0,1,2.23,2.23v5.61a2,2,0,0,1-2.23,2.23h-23v17.44h27.32a2,2,0,0,1,2.23,2.23v5.61a2,2,0,0,1-2.23,2.23H509.11a2,2,0,0,1-2.23-2.23V147.42a2,2,0,0,1,2.23-2.23h36.71a2,2,0,0,1,2.23,2.23V153a2,2,0,0,1-2.23,2.23H518.5v16.66Zm-17.33-32.84c-1.55,0-2.13-1-1.36-2.32l6.88-11.53a2.43,2.43,0,0,1,2.32-1.36h7c1.64,0,2.13,1.07,1.26,2.33l-8,11.62a2.65,2.65,0,0,1-2.33,1.26Z"
     id="path76"
     style="fill:#000000" />
  <path
     class="cls-2"
     d="M572.64,207.28a2,2,0,0,1-2.22,2.23h-7.17a2,2,0,0,1-2.23-2.23V147.42a2,2,0,0,1,2.23-2.23h17.82c15.79,0,23.34,6.49,23.34,19.86,0,10.07-4.16,16.37-12.78,18.89L604.8,206.8c.87,1.55.29,2.71-1.55,2.71h-8.33a2.8,2.8,0,0,1-2.71-1.55L580.39,185.3h-7.75Zm8.43-32.06c8,0,11.62-3.19,11.62-9.88,0-6.88-3.58-10.07-11.62-10.07h-8.43v19.95Z"
     id="path78"
     style="fill:#000000" />
  <path
     class="cls-2"
     d="M629.69,207.28a2,2,0,0,1-2.23,2.23H620.3a2,2,0,0,1-2.23-2.23V147.42a2,2,0,0,1,2.23-2.23h7.16a2,2,0,0,1,2.23,2.23Z"
     id="path80"
     style="fill:#000000" />
  <path
     class="cls-2"
     d="M692.65,219.58a2.28,2.28,0,0,1-1,3.1,20,20,0,0,1-9.78,2.52c-9.78,0-15.5-5-16.37-14.53-14.14-.67-21.8-8.81-21.8-23.24V167.28c0-15,8.33-23.25,23.64-23.25S691,152.27,691,167.28v20.15c0,11.72-5.13,19.27-14.62,22.08.19,4.07,2.32,6.2,6,6.2a10.12,10.12,0,0,0,5.23-1.45c1.36-.78,2.43-.58,3,.87Zm-37.29-33.22c0,9.59,4,14.24,12,14.24s12-4.65,12-14.24v-18c0-9.58-3.87-14.23-12-14.23s-12,4.65-12,14.23Z"
     id="path82"
     style="fill:#000000" />
  <path
     class="cls-2"
     d="M748.83,188.2c0,14.53-8,22.47-22.38,22.47s-22.37-7.94-22.37-22.47V147.42a2,2,0,0,1,2.22-2.23h7.17a2,2,0,0,1,2.23,2.23v39.91c0,9,3.49,13.27,10.85,13.27s10.94-4.26,10.94-13.27V147.42a2,2,0,0,1,2.23-2.23h6.88a2,2,0,0,1,2.23,2.23Z"
     id="path84"
     style="fill:#000000" />
  <path
     class="cls-2"
     d="M798.61,171.93a2,2,0,0,1,2.23,2.23v5.61a2,2,0,0,1-2.23,2.23H775.56v17.44h27.31a2,2,0,0,1,2.23,2.23v5.61a2,2,0,0,1-2.23,2.23H766.16a2,2,0,0,1-2.23-2.23V147.42a2,2,0,0,1,2.23-2.23h36.71a2,2,0,0,1,2.23,2.23V153a2,2,0,0,1-2.23,2.23H775.56v16.66Z"
     id="path86"
     style="fill:#000000" />
  <path
     class="cls-2"
     d="M856,151.39a2.07,2.07,0,0,1-.19,3.2l-4.27,4.17c-1.06,1.06-2.13,1-3.19-.1a15.93,15.93,0,0,0-11.72-4.55c-6.3,0-10.08,3.39-10.08,9,0,4.75,3,7.17,12.6,8.82,14.43,2.52,19.66,8.23,19.66,19.37,0,11.62-8.33,19.37-21,19.37-10.07,0-17.63-3-23-8.91a2,2,0,0,1,.1-3.1l4.26-4.26c1.07-1.06,2.13-1,3.2.1a19.48,19.48,0,0,0,14.72,6.1c6.3,0,10.08-3.39,10.08-9,0-4.84-2.91-7.07-12.6-8.81-14.24-2.52-19.66-7.85-19.66-19.37s8.33-19.38,21-19.38C844.71,144,851.3,146.45,856,151.39Z"
     id="path88"
     style="fill:#000000" />
</svg>
